<svg width="100" height="100" viewBox="0 0 100 100" fill="none" xmlns="http://www.w3.org/2000/svg">
<path d="M42.5913 20.6324L37.2285 16.0506L44.2879 15.4642L47.0335 9L49.779 15.4642L56.8384 16.0506L51.4757 20.6324L53.0933 27.459L47.0335 23.8269L40.9736 27.459L42.5913 20.6324ZM54.4172 38.5239C54.4172 34.488 51.1114 31.2163 47.0335 31.2163C42.9555 31.2163 39.6498 34.488 39.6498 38.5239C39.6498 42.5598 42.9555 45.8314 47.0335 45.8314C51.1114 45.8324 54.4172 42.5598 54.4172 38.5239ZM33.4006 60.1312C33.3683 60.6141 33.7506 61.0179 34.2394 61.0179H59.8265C60.3154 61.0179 60.6977 60.6141 60.6653 60.1312C60.2003 53.1032 54.246 47.4964 47.0325 47.4964C39.82 47.4964 33.8657 53.1032 33.4006 60.1312ZM64.05 65.1526L50.246 73.0399C50.3126 73.7562 50.2536 74.495 50.0529 75.2264C49.1438 78.531 45.6678 80.5019 42.3278 79.6021L33.4225 77.2029C32.7054 77.0109 32.2822 76.2796 32.4762 75.5699C32.6702 74.8602 33.4092 74.4414 34.1262 74.6334L43.0316 77.0325C44.9222 77.5417 46.9555 76.4189 47.4557 74.5299C48.1699 71.934 46.6026 69.2243 43.9807 68.5174L27.3103 64.0269C25.0973 63.737 23.0887 64.2669 21.317 65.611L17.8353 68.2501L22.5971 85.8395C24.5096 84.854 26.5276 84.5528 28.9451 85.1015L38.4933 87.2682C40.6673 87.7614 42.7111 87.5713 44.6436 86.4672L68.5226 72.8235C70.6529 71.6065 71.39 68.8845 70.1593 66.7752C68.9316 64.6641 66.1812 63.9347 64.05 65.1526ZM79 25.0006L71.9396 24.4142L69.1941 17.95L66.4485 24.4142L59.3881 25.0006L64.7509 29.5824L63.1332 36.409L69.1931 32.7769L75.253 36.409L73.6353 29.5824L79 25.0006ZM18.813 36.408L24.8729 32.7759L30.9327 36.408L29.3151 29.5814L34.6778 24.9996L27.6184 24.4133L24.8729 17.949L22.1273 24.4133L15.0679 24.9996L20.4306 29.5814L18.813 36.408ZM14.9033 67.7023C14.7635 67.1837 14.2205 66.8741 13.6965 67.0124L9.7298 68.0647C9.20674 68.2031 8.89291 68.7405 9.03366 69.2591L14.7845 90.4994C14.9243 91.0171 15.4682 91.3277 15.9913 91.1893L19.958 90.137C20.4811 89.9987 20.7949 89.4603 20.6541 88.9426L14.9033 67.7023Z" fill="#1A1A1A"/>
</svg>
