<svg width="204" height="57" viewBox="0 0 204 57" fill="none" xmlns="http://www.w3.org/2000/svg">
<g clip-path="url(#clip0_224_12)">
<path d="M24.5365 18.3864L20.6284 23.4291L25.2196 38.8587L19.5447 43.6107L13.8694 38.8587L18.4606 23.4291L14.5525 18.3864H0L16.8619 56.979H22.2818L39.089 18.3864H24.5365Z" fill="#73CE04"/>
<path d="M11.3438 8.25809C11.3438 3.69687 15.0151 -0.000335693 19.5443 -0.000335693C24.0733 -0.000335693 27.7449 3.69687 27.7449 8.25809C27.7449 12.8193 24.0733 16.5165 19.5443 16.5165C15.0151 16.5165 11.3438 12.8193 11.3438 8.25809Z" fill="#73CE04"/>
<path d="M54.3375 48.3862L45.0664 27.0575H49.0625L57.2946 46.3742H55.3764L63.7687 27.0575H67.525L58.2535 48.3862H54.3375Z" fill="#73CE04"/>
<path d="M79.9533 48.6281C77.6887 48.6281 75.6976 48.1592 73.979 47.2195C72.2608 46.2806 70.9285 44.9928 69.9833 43.3565C69.0369 41.7202 68.5645 39.8419 68.5645 37.7222C68.5645 35.6029 69.024 33.7247 69.943 32.0883C70.8621 30.4516 72.1272 29.1703 73.7396 28.2448C75.3512 27.3188 77.1692 26.8561 79.194 26.8561C81.2454 26.8561 83.0569 27.3127 84.6287 28.2241C86.2008 29.1371 87.4325 30.418 88.3254 32.0677C89.2175 33.7178 89.6642 35.6434 89.6642 37.8426C89.6642 38.0039 89.6573 38.1919 89.6441 38.4062C89.6304 38.621 89.6107 38.8228 89.5841 39.01H71.5615V36.233H87.5862L86.0278 37.1991C86.054 35.8306 85.7743 34.6101 85.1884 33.537C84.6021 32.464 83.7958 31.6252 82.7708 31.0214C81.7448 30.418 80.5529 30.1161 79.194 30.1161C77.8617 30.1161 76.6766 30.418 75.6373 31.0214C74.5987 31.6252 73.7855 32.4701 73.2 33.5569C72.6137 34.6433 72.3208 35.8845 72.3208 37.2793V37.9232C72.3208 39.3455 72.6467 40.6135 73.2998 41.7259C73.9525 42.8398 74.8643 43.705 76.0372 44.3222C77.209 44.9397 78.5546 45.2477 80.0732 45.2477C81.3251 45.2477 82.4642 45.0333 83.4899 44.6038C84.5152 44.175 85.4146 43.5311 86.1875 42.6721L88.3057 45.1671C87.3464 46.294 86.1538 47.153 84.7289 47.7427C83.3036 48.3335 81.7117 48.6281 79.9533 48.6281Z" fill="#73CE04"/>
<path d="M98.8169 18.5258H94.9805V48.3862H98.8169V18.5258Z" fill="#73CE04"/>
<path d="M115.201 45.2473C116.56 45.2473 117.779 44.9393 118.858 44.3218C119.937 43.7046 120.782 42.8265 121.395 41.6858C122.008 40.5458 122.314 39.2248 122.314 37.7218C122.314 36.1929 122.008 34.8714 121.395 33.7579C120.782 32.6447 119.937 31.7796 118.858 31.162C117.779 30.5449 116.56 30.2369 115.201 30.2369C113.842 30.2369 112.63 30.5449 111.565 31.162C110.499 31.7796 109.646 32.6447 109.007 33.7579C108.368 34.8714 108.048 36.1929 108.048 37.7218C108.048 39.2248 108.368 40.5458 109.007 41.6858C109.646 42.8265 110.499 43.7046 111.565 44.3218C112.63 44.9393 113.842 45.2473 115.201 45.2473ZM115.201 48.6277C113.069 48.6277 111.178 48.1588 109.526 47.2195C107.874 46.2806 106.569 44.9855 105.61 43.3355C104.651 41.6858 104.172 39.8148 104.172 37.7218C104.172 35.6025 104.651 33.7246 105.61 32.0879C106.569 30.4512 107.874 29.1699 109.526 28.2444C111.178 27.3185 113.069 26.8561 115.201 26.8561C117.306 26.8561 119.19 27.3185 120.856 28.2444C122.52 29.1699 123.826 30.4447 124.772 32.0673C125.717 33.6914 126.191 35.5757 126.191 37.7218C126.191 39.8416 125.717 41.7202 124.772 43.3561C123.826 44.9924 122.52 46.2806 120.856 47.2195C119.19 48.1588 117.306 48.6277 115.201 48.6277Z" fill="#73CE04"/>
<path d="M140.736 48.6281C138.578 48.6281 136.653 48.1592 134.962 47.2195C133.27 46.2806 131.945 44.9928 130.985 43.3565C130.027 41.7202 129.547 39.8419 129.547 37.7222C129.547 35.6029 130.027 33.7247 130.985 32.0883C131.945 30.4516 133.27 29.1703 134.962 28.2448C136.653 27.3188 138.578 26.8561 140.736 26.8561C142.654 26.8561 144.366 27.2386 145.871 28.0033C147.376 28.7679 148.542 29.9013 149.368 31.4039L146.451 33.2955C145.758 32.2492 144.912 31.4781 143.913 30.9813C142.914 30.4853 141.842 30.2372 140.696 30.2372C139.311 30.2372 138.072 30.5452 136.98 31.1624C135.887 31.7799 135.022 32.6451 134.382 33.7579C133.743 34.8715 133.423 36.1929 133.423 37.7222C133.423 39.2515 133.743 40.5795 134.382 41.706C135.022 42.833 135.887 43.705 136.98 44.3222C138.072 44.9397 139.311 45.2477 140.696 45.2477C141.842 45.2477 142.914 44.9997 143.913 44.5033C144.912 44.0069 145.758 43.2353 146.451 42.1891L149.368 44.0401C148.542 45.5163 147.376 46.6498 145.871 47.4408C144.366 48.2322 142.654 48.6281 140.736 48.6281Z" fill="#73CE04"/>
<path d="M163.434 48.6281C161.17 48.6281 159.178 48.1592 157.46 47.2195C155.742 46.2806 154.409 44.9928 153.464 43.3565C152.518 41.7202 152.045 39.8419 152.045 37.7222C152.045 35.6029 152.505 33.7246 153.424 32.0883C154.343 30.4516 155.608 29.1703 157.22 28.2448C158.832 27.3188 160.65 26.8561 162.675 26.8561C164.726 26.8561 166.537 27.3127 168.11 28.2241C169.681 29.1371 170.913 30.418 171.806 32.0677C172.698 33.7178 173.145 35.6434 173.145 37.8426C173.145 38.0038 173.138 38.1919 173.125 38.4062C173.111 38.621 173.091 38.8228 173.065 39.01H155.042V36.233H171.067L169.508 37.1991C169.535 35.8306 169.255 34.6101 168.669 33.537C168.083 32.464 167.277 31.6252 166.251 31.0214C165.226 30.418 164.034 30.1161 162.675 30.1161C161.342 30.1161 160.157 30.418 159.118 31.0214C158.079 31.6252 157.266 32.4701 156.68 33.5569C156.094 34.6433 155.801 35.8845 155.801 37.2793V37.9232C155.801 39.3455 156.128 40.6135 156.781 41.7259C157.433 42.8398 158.345 43.705 159.518 44.3221C160.69 44.9397 162.035 45.2477 163.554 45.2477C164.806 45.2477 165.945 45.0333 166.971 44.6038C167.996 44.175 168.895 43.5311 169.668 42.6721L171.786 45.1671C170.827 46.294 169.634 47.153 168.209 47.7427C166.784 48.3335 165.192 48.6281 163.434 48.6281Z" fill="#73CE04"/>
<path d="M187.529 45.2473C188.888 45.2473 190.107 44.9393 191.186 44.3218C192.265 43.7046 193.11 42.8265 193.723 41.6858C194.336 40.5458 194.643 39.2248 194.643 37.7218C194.643 36.1929 194.336 34.8714 193.723 33.7579C193.11 32.6447 192.265 31.7796 191.186 31.162C190.107 30.5449 188.888 30.2369 187.529 30.2369C186.17 30.2369 184.958 30.5449 183.893 31.162C182.827 31.7796 181.975 32.6447 181.335 33.7579C180.696 34.8714 180.376 36.1929 180.376 37.7218C180.376 39.2248 180.696 40.5458 181.335 41.6858C181.975 42.8265 182.827 43.7046 183.893 44.3218C184.958 44.9393 186.17 45.2473 187.529 45.2473ZM187.529 48.6277C185.397 48.6277 183.506 48.1588 181.855 47.2195C180.202 46.2806 178.897 44.9855 177.939 43.3355C176.979 41.6858 176.5 39.8148 176.5 37.7218C176.5 35.6025 176.979 33.7246 177.939 32.0879C178.897 30.4512 180.202 29.1699 181.855 28.2444C183.506 27.3185 185.397 26.8561 187.529 26.8561C189.634 26.8561 191.518 27.3185 193.184 28.2444C194.849 29.1699 196.154 30.4447 197.1 32.0673C198.045 33.6914 198.519 35.5757 198.519 37.7218C198.519 39.8416 198.045 41.7202 197.1 43.3561C196.154 44.9924 194.849 46.2806 193.184 47.2195C191.518 48.1588 189.634 48.6277 187.529 48.6277Z" fill="#73CE04"/>
<path d="M200.594 26.6704H200.832C201.17 26.6704 201.38 26.6574 201.462 26.631C201.543 26.605 201.608 26.5588 201.655 26.4934C201.702 26.4281 201.726 26.3536 201.726 26.2703C201.726 26.1892 201.703 26.1174 201.657 26.0543C201.611 25.9913 201.545 25.9458 201.46 25.9183C201.375 25.8912 201.166 25.8774 200.832 25.8774H200.594V26.6704ZM200.009 28.3204V25.4166H200.594C201.143 25.4166 201.451 25.4189 201.517 25.4238C201.71 25.4402 201.861 25.4792 201.969 25.54C202.077 25.6004 202.167 25.6932 202.239 25.8186C202.31 25.9435 202.347 26.0822 202.347 26.2343C202.347 26.4441 202.279 26.6234 202.143 26.772C202.007 26.921 201.816 27.0131 201.57 27.0491C201.657 27.0823 201.725 27.1186 201.772 27.158C201.819 27.1973 201.884 27.2718 201.967 27.3811C201.989 27.4098 202.06 27.5279 202.18 27.735L202.521 28.3204H201.797L201.556 27.8493C201.393 27.5325 201.258 27.333 201.151 27.2508C201.045 27.1687 200.91 27.1274 200.747 27.1274H200.594V28.3204H200.009ZM201.24 24.6557C200.867 24.6557 200.508 24.7497 200.165 24.9377C199.822 25.1257 199.552 25.3963 199.355 25.7486C199.157 26.1014 199.059 26.4705 199.059 26.8561C199.059 27.2397 199.155 27.6051 199.348 27.9528C199.54 28.3006 199.809 28.5719 200.155 28.7672C200.5 28.9624 200.862 29.0599 201.24 29.0599C201.621 29.0599 201.983 28.9624 202.327 28.7672C202.671 28.5719 202.94 28.3006 203.134 27.9528C203.328 27.6051 203.425 27.2397 203.425 26.8561C203.425 26.4705 203.326 26.1014 203.129 25.7486C202.932 25.3963 202.661 25.1257 202.317 24.9377C201.973 24.7497 201.614 24.6557 201.24 24.6557ZM201.236 24.12C201.702 24.12 202.149 24.2373 202.577 24.4719C203.005 24.7062 203.342 25.0428 203.587 25.4808C203.831 25.9191 203.953 26.3773 203.953 26.8561C203.953 27.3322 203.834 27.7866 203.593 28.2188C203.354 28.651 203.019 28.988 202.59 29.2299C202.16 29.4714 201.709 29.5922 201.236 29.5922C200.764 29.5922 200.312 29.4714 199.883 29.2299C199.454 28.988 199.119 28.651 198.879 28.2188C198.639 27.7866 198.52 27.3322 198.52 26.8561C198.52 26.3773 198.642 25.9191 198.886 25.4808C199.131 25.0428 199.467 24.7062 199.896 24.4719C200.324 24.2373 200.771 24.12 201.236 24.12Z" fill="#73CE04"/>
</g>
<defs>
<clipPath id="clip0_224_12">
<rect width="204" height="57" fill="white"/>
</clipPath>
</defs>
</svg>
