<svg width="100" height="100" viewBox="0 0 100 100" fill="none" xmlns="http://www.w3.org/2000/svg">
<path fill-rule="evenodd" clip-rule="evenodd" d="M63.9124 44.3518L66.6096 46.7137L69.3068 44.3518H63.9124ZM60.7289 51.8654L59.7624 52.7119L56.0609 44.3516H60.8426L65.0748 48.0577L60.8237 51.7828C60.7921 51.8082 60.7605 51.8367 60.7321 51.8652L60.7289 51.8654ZM73.9588 22.4099C70.4531 18.8908 64.9607 18.3487 60.8388 21.1132C56.7172 23.8776 55.1128 29.1785 57.0078 33.7758C58.9059 38.3728 63.7729 40.9851 68.6336 40.0182C73.4973 39.0481 77.0002 34.7649 77.0002 29.7903C77.0065 27.0226 75.9106 24.3691 73.9588 22.4162V22.4099ZM69.1076 69.293L67.6011 56.9445C67.5663 56.6813 67.639 56.4182 67.7969 56.209L70.4057 52.7311L66.6063 49.4022L62.8068 52.7311L65.4156 56.209C65.5767 56.4182 65.6462 56.6813 65.6146 56.9445L64.1112 69.2995C65.7662 69.3281 67.4337 69.3247 69.1076 69.293ZM71.9375 54.069L73.1597 55.1405C73.2355 55.2071 73.3239 55.2642 73.4155 55.3022C73.9272 55.5273 74.5209 55.299 74.7452 54.7886L79.2931 44.5137C81.725 44.9068 83.9769 46.0323 85.7519 47.738C87.9722 49.8463 89.2355 52.7756 89.2481 55.8413V67.4798C84.6559 68.2121 80.1206 68.7257 75.6454 69.0142C74.1358 69.1125 72.6355 69.1885 71.1449 69.2393L69.6573 57.1033L71.9345 54.0693L71.9375 54.069ZM72.3986 51.7831L68.1475 48.058L72.3796 44.3519H77.1582L73.4567 52.7123L72.4934 51.8658C72.4618 51.8372 72.4302 51.8085 72.3986 51.7831ZM42.0255 73.2558H35.712V76.3944C35.712 76.7083 35.9678 76.9651 36.2773 76.9651H41.4602C41.7728 76.9651 42.0255 76.7083 42.0255 76.3944L42.0255 73.2558ZM44.0499 75.8903L57.3777 75.8935C57.8798 75.8935 58.3757 75.8206 58.8557 75.6779V86.1436C58.8526 86.9678 58.521 87.7541 57.9335 88.3311C57.3398 88.9176 56.5375 89.2473 55.7006 89.2473H22.036C21.199 89.2473 20.3969 88.9176 19.8 88.3311C19.2157 87.7541 18.8841 86.9678 18.8809 86.1436V75.6779C19.361 75.8206 19.8568 75.8935 20.359 75.8935H33.6867V76.3944C33.6899 77.8274 34.8458 78.9909 36.2734 78.9941H41.4593C42.8869 78.9877 44.0428 77.8274 44.046 76.3944V75.8935L44.0499 75.8903ZM34.7017 71.2236C34.1396 71.2236 33.6879 71.6801 33.6879 72.2413V73.8613H20.3602C19.7001 73.8613 19.0558 73.6584 18.5189 73.2748C18.4873 73.2495 18.4526 73.2241 18.4179 73.1987C17.6599 72.6186 17.2114 71.715 17.2051 70.7576V63.6085C17.2051 62.7874 17.5367 61.9979 18.1241 61.4241C18.721 60.8344 19.5233 60.5047 20.3602 60.5079H57.3786C58.2156 60.5079 59.0177 60.8344 59.6115 61.4241C60.1989 61.9979 60.5305 62.7874 60.5337 63.6085V70.7576C60.5305 71.5818 60.1989 72.3681 59.6115 72.9451C59.5199 73.037 59.422 73.1226 59.3178 73.2019C59.283 73.2241 59.2483 73.2495 59.2167 73.2748C58.6798 73.6584 58.0355 73.8613 57.3786 73.8613H44.0508V72.2413C44.0508 71.6801 43.596 71.2236 43.037 71.2236H34.7017ZM48.2696 58.4757V55.7873C48.2696 55.1627 48.0201 54.5667 47.5748 54.1292C47.12 53.6822 46.5105 53.4317 45.8756 53.4317H31.8655C31.2306 53.4317 30.6211 53.6822 30.1694 54.1292C29.7241 54.5667 29.4714 55.1627 29.4714 55.7873V58.4726L30.7474 58.4757V55.7873C30.7568 55.1691 31.2527 54.6713 31.8685 54.665H45.8722C46.4849 54.6713 46.9839 55.1691 46.9902 55.7873V58.4726L48.2696 58.4757ZM44.906 51.3995H45.8724C47.0378 51.3995 48.159 51.8592 48.9897 52.6835C49.8235 53.5014 50.2941 54.6205 50.2973 55.7872V58.4725H57.3813L57.3782 58.4756C58.7457 58.4756 60.0596 59.0178 61.0323 59.9816C62.005 60.9359 62.5577 62.2452 62.5609 63.6116V65.3173L63.5621 57.1096L61.285 54.0692L60.0627 55.1408C59.8227 55.3532 59.4942 55.4356 59.1816 55.3659C58.8721 55.2961 58.6099 55.0805 58.4804 54.7889L53.9262 44.5139C52.0501 44.8183 50.272 45.5602 48.7339 46.6793C47.0663 47.8872 45.7461 49.5136 44.9092 51.3999L44.906 51.3995Z" fill="#1A1A1A"/>
</svg>
