<svg width="100" height="100" viewBox="0 0 100 100" fill="none" xmlns="http://www.w3.org/2000/svg">
<path d="M42.3488 56.5233H58.6279C61.2988 56.5357 63.9454 56.0148 66.4123 54.9909C68.8793 53.9671 71.117 52.4611 72.9942 50.561C74.5063 49.0812 75.7644 47.3625 76.718 45.4738C78.2054 42.5999 78.9801 39.4105 78.9767 36.1744C78.9767 35.6347 78.7624 35.1172 78.3807 34.7355C77.9991 34.3539 77.4815 34.1395 76.9419 34.1395H24.0349C23.4952 34.1395 22.9776 34.3539 22.596 34.7355C22.2144 35.1172 22 35.6347 22 36.1744C22 41.5713 24.1439 46.7471 27.96 50.5632C29.8496 52.4528 32.0928 53.9517 34.5617 54.9743C37.0305 55.9969 39.6766 56.5233 42.3488 56.5233ZM50.4884 42.2791C51.2933 42.2791 52.0801 42.5178 52.7494 42.965C53.4187 43.4121 53.9403 44.0478 54.2483 44.7914C54.5564 45.5351 54.637 46.3534 54.4799 47.1428C54.3229 47.9323 53.9353 48.6574 53.3661 49.2266C52.797 49.7958 52.0718 50.1834 51.2823 50.3404C50.4929 50.4974 49.6746 50.4168 48.9309 50.1088C48.1873 49.8008 47.5517 49.2792 47.1045 48.6099C46.6573 47.9406 46.4186 47.1538 46.4186 46.3488C46.4186 45.2695 46.8474 44.2343 47.6106 43.4711C48.3738 42.7078 49.409 42.2791 50.4884 42.2791ZM74.4186 52.0262C75.3533 51.1119 76.1982 50.1103 76.9419 49.0349V72.8023C76.9419 73.342 76.7275 73.8596 76.3459 74.2412C75.9642 74.6228 75.4467 74.8372 74.907 74.8372H26.0698C25.5301 74.8372 25.0125 74.6228 24.6309 74.2412C24.2493 73.8596 24.0349 73.342 24.0349 72.8023V49.0145C26.0871 51.9688 28.8258 54.3808 32.0158 56.0431C35.2058 57.7055 38.7517 58.5685 42.3488 58.5581H58.6279C61.5621 58.5744 64.4701 58.005 67.1815 56.8834C69.8929 55.7618 72.3533 54.1105 74.4186 52.0262ZM46.4186 32.1047H42.3488V28.0349C42.3488 27.4952 42.5632 26.9776 42.9448 26.596C43.3265 26.2144 43.844 26 44.3837 26H56.593C57.1327 26 57.6503 26.2144 58.0319 26.596C58.4135 26.9776 58.6279 27.4952 58.6279 28.0349V32.1047H54.5581V30.0698H46.4186V32.1047Z" fill="#1A1A1A"/>
</svg>
