<svg width="27" height="28" viewBox="0 0 27 28" fill="none" xmlns="http://www.w3.org/2000/svg">
<path d="M19.5052 6.85986C18.7627 6.85986 18.2227 7.48986 18.2227 8.18986C18.2227 8.95986 18.8302 9.51986 19.5052 9.51986C20.2477 9.51986 20.7877 8.88986 20.7877 8.18986C20.7877 7.48986 20.1802 6.85986 19.5052 6.85986Z" fill="#73CE04"/>
<path d="M13.7019 8.60986C10.6644 8.60986 8.23438 11.1299 8.23438 14.2799C8.23438 17.4299 10.6644 19.9499 13.7019 19.9499C16.7394 19.9499 19.1694 17.4299 19.1694 14.2799C19.1694 11.1999 16.7394 8.60986 13.7019 8.60986ZM13.7019 17.9199C11.7444 17.9199 10.1919 16.3099 10.1919 14.2799C10.1919 12.2499 11.7444 10.6399 13.7019 10.6399C15.6594 10.6399 17.2119 12.2499 17.2119 14.2799C17.2119 16.3099 15.6594 17.9199 13.7019 17.9199Z" fill="#73CE04"/>
<path d="M18.0211 25.8298H9.17859C5.46609 25.8298 2.49609 22.7498 2.49609 18.8998V9.7298C2.49609 5.8798 5.46609 2.7998 9.17859 2.7998H18.0211C21.7336 2.7998 24.7036 5.8798 24.7036 9.7298V18.8998C24.7036 22.7498 21.7336 25.8298 18.0211 25.8298ZM9.17859 4.9698C6.68109 4.9698 4.58859 7.0698 4.58859 9.7298V18.8998C4.58859 21.4898 6.61359 23.6598 9.17859 23.6598H18.0211C20.5186 23.6598 22.6111 21.5598 22.6111 18.8998V9.7298C22.6111 7.1398 20.5861 4.9698 18.0211 4.9698H9.17859Z" fill="#73CE04"/>
</svg>
