<svg width="28" height="28" viewBox="0 0 28 28" fill="none" xmlns="http://www.w3.org/2000/svg">
<path d="M5.21595 14.4035C5.21595 14.4035 13.9878 10.6717 17.03 9.35766C18.1962 8.83208 22.1511 7.15007 22.1511 7.15007C22.1511 7.15007 23.9765 6.41425 23.8243 8.2013C23.7736 8.93719 23.368 11.5127 22.9624 14.2984C22.3539 18.2405 21.6947 22.5505 21.6947 22.5505C21.6947 22.5505 21.5933 23.7595 20.7314 23.9697C19.8694 24.18 18.4497 23.2339 18.1962 23.0236C17.9933 22.866 14.3934 20.5007 13.0751 19.3443C12.7201 19.029 12.3145 18.3983 13.1257 17.6624C14.9511 15.9278 17.1314 13.7728 18.4497 12.4063C19.0581 11.7755 19.6666 10.3038 17.1314 12.0908C13.5314 14.6664 9.98213 17.0842 9.98213 17.0842C9.98213 17.0842 9.17084 17.6098 7.64974 17.1367C6.12857 16.6637 4.35392 16.033 4.35392 16.033C4.35392 16.033 3.1371 15.2445 5.21595 14.4035Z" fill="#73CE04"/>
</svg>
