<svg width="27" height="28" viewBox="0 0 27 28" fill="none" xmlns="http://www.w3.org/2000/svg">
<path d="M2 26L3.72195 19.6031C2.33324 17.1112 1.89203 14.2033 2.47929 11.4131C3.06655 8.62288 4.64287 6.13748 6.91901 4.41298C9.19515 2.68848 12.0184 1.84055 14.8707 2.02477C17.7231 2.209 20.4131 3.41304 22.4473 5.41594C24.4815 7.41883 25.7233 10.0862 25.9449 12.9287C26.1665 15.7712 25.353 18.598 23.6537 20.8904C21.9544 23.1829 19.4832 24.7873 16.6937 25.4091C13.9042 26.0309 10.9835 25.6285 8.46746 24.2757L2 26ZM8.77931 21.8819L9.17929 22.1186C11.0017 23.196 13.1303 23.6419 15.2333 23.3867C17.3362 23.1315 19.2955 22.1896 20.8058 20.7077C22.3161 19.2258 23.2925 17.2873 23.5828 15.1941C23.8732 13.101 23.4613 10.9708 22.4112 9.13553C21.3611 7.30028 19.7318 5.86306 17.7774 5.04784C15.8229 4.23262 13.6529 4.0852 11.6056 4.62854C9.55837 5.17188 7.7488 6.37546 6.45892 8.05173C5.16904 9.728 4.4713 11.7828 4.47445 13.8959C4.47273 15.648 4.95853 17.3662 5.87777 18.8593L6.1286 19.2717L5.16594 22.8421L8.77931 21.8819Z" fill="#73CE04"/>
<path fill-rule="evenodd" clip-rule="evenodd" d="M18.4884 15.5385C18.254 15.3498 17.9794 15.2171 17.6857 15.1503C17.392 15.0835 17.0869 15.0844 16.7936 15.153C16.353 15.3356 16.0682 16.0253 15.7835 16.3702C15.7234 16.4529 15.6352 16.5109 15.5354 16.5333C15.4355 16.5557 15.3309 16.541 15.2411 16.4919C13.6279 15.8617 12.2757 14.7059 11.4041 13.2123C11.3297 13.1191 11.2945 13.0008 11.3059 12.8822C11.3173 12.7637 11.3744 12.6541 11.4651 12.5767C11.7826 12.2631 12.0158 11.8747 12.143 11.4474C12.1712 10.9761 12.063 10.5067 11.8312 10.095C11.6519 9.51791 11.3108 9.00404 10.8482 8.61412C10.6095 8.50707 10.3449 8.47118 10.0863 8.51077C9.82768 8.55037 9.58606 8.66376 9.3906 8.83727C9.05128 9.12929 8.78194 9.49351 8.60243 9.9031C8.42292 10.3127 8.33781 10.7572 8.35337 11.204C8.35442 11.4549 8.38629 11.7047 8.44828 11.9478C8.6057 12.532 8.84779 13.0901 9.16689 13.6045C9.39711 13.9986 9.6483 14.38 9.91939 14.7473C10.8004 15.9537 11.9078 16.9779 13.1802 17.7632C13.8187 18.1623 14.5012 18.4867 15.214 18.7302C15.9545 19.065 16.7722 19.1935 17.58 19.1021C18.0403 19.0326 18.4764 18.8513 18.85 18.5742C19.2235 18.2971 19.5231 17.9327 19.7223 17.513C19.8393 17.2595 19.8748 16.976 19.824 16.7016C19.7019 16.1403 18.9494 15.809 18.4884 15.5385Z" fill="#73CE04"/>
</svg>
