<svg width="27" height="28" viewBox="0 0 27 28" fill="none" xmlns="http://www.w3.org/2000/svg">
<path d="M8.43237 24.6638C8.43237 24.2622 8.43237 23.8606 8.43237 23.459C8.43522 23.4426 8.43465 23.4257 8.43067 23.4095C8.42669 23.3934 8.4194 23.3782 8.40925 23.3649C8.3991 23.3516 8.3863 23.3405 8.37165 23.3323C8.35699 23.3241 8.3408 23.319 8.32406 23.3172C7.31857 23.0345 6.39052 22.5307 5.60906 21.8435C5.03968 21.3307 4.56561 20.723 4.20842 20.048C3.70496 19.073 3.36991 18.0215 3.21714 16.9369C3.02786 15.5765 2.96213 14.202 3.02072 12.83C3.03357 12.1903 3.06661 11.5579 3.14004 10.9183C3.25715 9.70271 3.56689 8.513 4.05789 7.39284C4.66419 6.01556 5.76409 4.90924 7.14554 4.28719C8.08659 3.86088 9.07659 3.54966 10.0937 3.3604C11.0911 3.17338 12.101 3.05859 13.1152 3.01694C14.0295 2.98494 14.9448 2.99828 15.8578 3.05692C17.1644 3.11152 18.4592 3.32576 19.7127 3.69477C20.6422 3.95999 21.5263 4.36118 22.336 4.88506C23.1248 5.42116 23.7629 6.14723 24.19 6.99486C24.6922 7.98487 25.0335 9.04706 25.2015 10.1423C25.3106 10.7926 25.3823 11.4484 25.4163 12.1067C25.464 12.9227 25.4585 13.7422 25.4273 14.5545C25.3961 15.3668 25.3263 16.1555 25.2254 16.9515C25.0977 18.1461 24.7268 19.3028 24.135 20.3515C23.3646 21.6782 22.1305 22.6801 20.6655 23.1682C19.6637 23.5155 18.6293 23.7627 17.5778 23.906C16.8087 24.0114 16.0377 24.0877 15.263 24.1186C14.6701 24.1459 14.0771 24.1386 13.4842 24.1295C13.1483 24.1295 12.8142 24.0968 12.4801 24.0678C12.4473 24.0616 12.4134 24.0653 12.3827 24.0782C12.352 24.0911 12.3258 24.1128 12.3075 24.1404C11.632 24.9437 10.9308 25.7251 10.224 26.5028C10.0953 26.6447 9.94622 26.7672 9.78161 26.8663C9.67355 26.9365 9.55034 26.9805 9.42192 26.9949C9.29349 27.0092 9.16347 26.9935 9.04233 26.9489C8.92119 26.9043 8.81233 26.8322 8.72455 26.7383C8.63677 26.6444 8.57253 26.5314 8.537 26.4083C8.46705 26.1898 8.43236 25.9616 8.4342 25.7323C8.43237 25.3725 8.43237 25.0182 8.43237 24.6638ZM9.24925 26.1885L9.33553 26.1085L10.8683 24.4239C11.4582 23.7758 12.0475 23.127 12.6361 22.4777C12.6651 22.4381 12.7041 22.4068 12.7492 22.387C12.7944 22.3672 12.844 22.3596 12.8931 22.365C13.0932 22.385 13.2933 22.3923 13.4952 22.3941C14.1928 22.3941 14.8904 22.3941 15.5879 22.345C16.2212 22.296 16.8527 22.2196 17.4805 22.1215C18.1565 22.005 18.8256 21.8527 19.4851 21.6654C20.9537 21.2747 22.09 20.4387 22.8041 19.0849C23.2257 18.2525 23.4901 17.3509 23.5842 16.4245C23.6958 15.5513 23.7626 14.673 23.7843 13.7931C23.8169 12.6878 23.7406 11.5819 23.5567 10.4912C23.4292 9.70098 23.1997 8.93023 22.8738 8.19787C22.459 7.28926 21.8715 6.53692 20.9665 6.05354C19.5787 5.31211 18.0771 4.98137 16.5296 4.81237C16.0909 4.76512 15.6522 4.73968 15.2116 4.72332C14.3095 4.67728 13.4055 4.68214 12.504 4.73786C11.8556 4.7855 11.2107 4.87167 10.5728 4.99591C9.63467 5.1652 8.72712 5.47141 7.87982 5.90453C7.38861 6.15023 6.94297 6.47649 6.56179 6.86947C5.94401 7.553 5.49086 8.36632 5.23641 9.24823C4.93456 10.2753 4.76978 11.3371 4.74628 12.4066C4.68722 13.476 4.70071 14.5482 4.78667 15.6158C4.84015 16.2512 4.94761 16.881 5.10791 17.4985C5.34642 18.4608 5.80912 19.3544 6.45899 20.108C7.1606 20.8768 8.0674 21.4337 9.07486 21.7144C9.20153 21.7526 9.25843 21.7962 9.25843 21.938C9.24742 22.4613 9.25843 22.9847 9.25843 23.508L9.24925 26.1885Z" fill="#73CE04"/>
<path d="M7.96447 9.95687C7.95162 9.5589 8.17007 9.26996 8.43441 9.0101C8.78304 8.67948 9.16715 8.3876 9.57988 8.13964C9.76809 8.02474 9.99187 7.98096 10.2101 8.01635C10.4283 8.05174 10.6263 8.16392 10.7676 8.33227C11.267 8.85191 11.7139 9.41854 12.1021 10.0241C12.2944 10.2965 12.4395 10.5987 12.5317 10.9182C12.5685 11.0429 12.5709 11.1751 12.5386 11.301C12.5063 11.4269 12.4406 11.542 12.3481 11.6342C12.1363 11.84 11.9106 12.0312 11.6726 12.2066C11.5526 12.3012 11.4634 12.4287 11.4161 12.5731C11.3688 12.7176 11.3654 12.8726 11.4064 13.0189C11.5534 13.706 11.8866 14.3404 12.3702 14.8543C12.9577 15.5644 13.7148 16.1184 14.573 16.4662C14.7839 16.5735 15.0255 16.6062 15.2577 16.5589C15.3849 16.5245 15.4979 16.4514 15.5808 16.3499C15.7093 16.1882 15.8488 16.0319 15.9645 15.8592C16.1144 15.6439 16.3435 15.4951 16.6027 15.4445C16.862 15.3939 17.1309 15.4456 17.3522 15.5885C17.9745 15.9459 18.562 16.3595 19.1072 16.8242C19.2357 16.9332 19.3697 17.0386 19.4982 17.1495C19.6502 17.2643 19.76 17.4253 19.8108 17.6078C19.8615 17.7903 19.8503 17.9842 19.779 18.1599C19.6656 18.4552 19.5003 18.7284 19.2907 18.9667C19.0303 19.325 18.6986 19.6268 18.316 19.8535C18.1331 19.9598 17.9276 20.0223 17.7159 20.0359C17.5042 20.0494 17.2923 20.0137 17.0971 19.9317C15.6119 19.3397 14.2241 18.5319 12.9796 17.5347C11.7623 16.5427 10.6986 15.3795 9.8222 14.082C9.08478 13.0079 8.49812 11.8396 8.07828 10.6093C8.03358 10.4604 7.99681 10.3094 7.96814 10.1568C7.95998 10.0904 7.95875 10.0235 7.96447 9.95687Z" fill="#73CE04"/>
<path d="M14.3023 8.02402C15.545 8.04676 16.7401 8.50051 17.6794 9.30617C18.6187 10.1118 19.2426 11.2183 19.4423 12.4326C19.5227 12.8741 19.5657 13.3215 19.5708 13.7701C19.5708 13.8755 19.5433 13.9518 19.4295 13.9627C19.3156 13.9736 19.2863 13.8773 19.2863 13.781C19.3033 12.8736 19.1152 11.9739 18.7356 11.1478C18.4159 10.469 17.9423 9.87241 17.3517 9.40436C16.7611 8.93631 16.0694 8.60947 15.3303 8.44925C14.9396 8.3597 14.54 8.31338 14.139 8.31114C14.0999 8.31181 14.061 8.30691 14.0233 8.2966C13.9913 8.28766 13.964 8.26674 13.9472 8.23827C13.9304 8.20979 13.9255 8.17598 13.9334 8.14396C13.9336 8.12876 13.9369 8.11377 13.943 8.09985C13.9492 8.08593 13.9581 8.07336 13.9692 8.06287C13.9803 8.05239 13.9934 8.04419 14.0077 8.03877C14.0221 8.03335 14.0373 8.0308 14.0527 8.03129C14.1353 8.02038 14.2197 8.02402 14.3023 8.02402Z" fill="#73CE04"/>
<path d="M17.8457 12.9516C17.8395 12.4467 17.7139 11.9503 17.479 11.5022C17.244 11.0541 16.9062 10.6667 16.4928 10.3711C16.0102 10.0355 15.4491 9.82725 14.8627 9.76596C14.7635 9.75324 14.6644 9.74779 14.5634 9.73689C14.4625 9.72598 14.4019 9.68419 14.4111 9.58242C14.4202 9.48066 14.4845 9.44431 14.5946 9.45158C16.2211 9.54971 17.6052 10.4601 18.0311 12.1556C18.109 12.4825 18.1478 12.8174 18.1467 13.1533C18.1467 13.1842 18.1467 13.2151 18.1467 13.2441C18.1467 13.335 18.088 13.395 17.998 13.3932C17.9781 13.3925 17.9585 13.3878 17.9404 13.3794C17.9224 13.371 17.9062 13.359 17.893 13.3442C17.8798 13.3294 17.8697 13.3121 17.8635 13.2933C17.8572 13.2746 17.8549 13.2547 17.8567 13.2351C17.842 13.1496 17.8457 13.0624 17.8457 12.9516Z" fill="#73CE04"/>
<path d="M14.9957 10.9271C15.8878 10.9871 16.5101 11.4196 16.6809 12.3591C16.7016 12.4795 16.7163 12.6008 16.7249 12.7226C16.7249 12.8207 16.7029 12.9043 16.5946 12.9043C16.4863 12.9043 16.4496 12.8316 16.4459 12.7226C16.4449 12.3624 16.3328 12.0112 16.1246 11.7158C15.9059 11.4483 15.5918 11.274 15.2472 11.2288C15.1701 11.2145 15.0923 11.2048 15.014 11.1997C14.8855 11.1997 14.814 11.1361 14.8305 11.038C14.847 10.9399 14.9241 10.9217 14.9957 10.9271Z" fill="#73CE04"/>
</svg>
