<svg width="28" height="28" viewBox="0 0 28 28" fill="none" xmlns="http://www.w3.org/2000/svg">
<path d="M24.5415 8.49818C24.2895 7.51636 23.5441 6.74182 22.5956 6.47636C20.8807 6 14 6 14 6C14 6 7.12281 6 5.40439 6.47636C4.45943 6.73818 3.71397 7.51273 3.45848 8.49818C3 10.28 3 14 3 14C3 14 3 17.72 3.45848 19.5018C3.71047 20.4836 4.45593 21.2582 5.40439 21.5236C7.12281 22 14 22 14 22C14 22 20.8807 22 22.5956 21.5236C23.5406 21.2618 24.286 20.4873 24.5415 19.5018C25 17.72 25 14 25 14C25 14 25 10.28 24.5415 8.49818Z" fill="#73CE04"/>
<path d="M11.8021 17.4291L17.5173 14L11.8021 10.5709V17.4291Z" fill="#1A1A1A"/>
</svg>
